<svg width="560" height="144" viewBox="0 0 560 144" fill="none" xmlns="http://www.w3.org/2000/svg">
<g filter="url(#filter0_b_516_334)">
<rect width="560" height="144" rx="24" fill="#20283E" fill-opacity="0.8"/>
<path d="M45.868 50.14H42.22L41.548 52H40.396L43.42 43.684H44.68L47.692 52H46.54L45.868 50.14ZM45.556 49.252L44.044 45.028L42.532 49.252H45.556ZM48.6019 48.7C48.6019 48.02 48.7379 47.428 49.0099 46.924C49.2819 46.412 49.6579 46.016 50.1379 45.736C50.6259 45.456 51.1819 45.316 51.8059 45.316C52.6139 45.316 53.2779 45.512 53.7979 45.904C54.3259 46.296 54.6739 46.84 54.8419 47.536H53.6659C53.5539 47.136 53.3339 46.82 53.0059 46.588C52.6859 46.356 52.2859 46.24 51.8059 46.24C51.1819 46.24 50.6779 46.456 50.2939 46.888C49.9099 47.312 49.7179 47.916 49.7179 48.7C49.7179 49.492 49.9099 50.104 50.2939 50.536C50.6779 50.968 51.1819 51.184 51.8059 51.184C52.2859 51.184 52.6859 51.072 53.0059 50.848C53.3259 50.624 53.5459 50.304 53.6659 49.888H54.8419C54.6659 50.56 54.3139 51.1 53.7859 51.508C53.2579 51.908 52.5979 52.108 51.8059 52.108C51.1819 52.108 50.6259 51.968 50.1379 51.688C49.6579 51.408 49.2819 51.012 49.0099 50.5C48.7379 49.988 48.6019 49.388 48.6019 48.7ZM57.631 46.324V50.2C57.631 50.52 57.699 50.748 57.835 50.884C57.971 51.012 58.207 51.076 58.543 51.076H59.347V52H58.363C57.755 52 57.299 51.86 56.995 51.58C56.691 51.3 56.539 50.84 56.539 50.2V46.324H55.687V45.424H56.539V43.768H57.631V45.424H59.347V46.324H57.631ZM61.2341 44.356C61.0261 44.356 60.8501 44.284 60.7061 44.14C60.5621 43.996 60.4901 43.82 60.4901 43.612C60.4901 43.404 60.5621 43.228 60.7061 43.084C60.8501 42.94 61.0261 42.868 61.2341 42.868C61.4341 42.868 61.6021 42.94 61.7381 43.084C61.8821 43.228 61.9541 43.404 61.9541 43.612C61.9541 43.82 61.8821 43.996 61.7381 44.14C61.6021 44.284 61.4341 44.356 61.2341 44.356ZM61.7621 45.424V52H60.6701V45.424H61.7621ZM66.4912 52.108C65.8752 52.108 65.3152 51.968 64.8112 51.688C64.3152 51.408 63.9232 51.012 63.6352 50.5C63.3552 49.98 63.2152 49.38 63.2152 48.7C63.2152 48.028 63.3592 47.436 63.6472 46.924C63.9432 46.404 64.3432 46.008 64.8472 45.736C65.3512 45.456 65.9152 45.316 66.5392 45.316C67.1632 45.316 67.7272 45.456 68.2312 45.736C68.7352 46.008 69.1312 46.4 69.4192 46.912C69.7152 47.424 69.8632 48.02 69.8632 48.7C69.8632 49.38 69.7112 49.98 69.4072 50.5C69.1112 51.012 68.7072 51.408 68.1952 51.688C67.6832 51.968 67.1152 52.108 66.4912 52.108ZM66.4912 51.148C66.8832 51.148 67.2512 51.056 67.5952 50.872C67.9392 50.688 68.2152 50.412 68.4232 50.044C68.6392 49.676 68.7472 49.228 68.7472 48.7C68.7472 48.172 68.6432 47.724 68.4352 47.356C68.2272 46.988 67.9552 46.716 67.6192 46.54C67.2832 46.356 66.9192 46.264 66.5272 46.264C66.1272 46.264 65.7592 46.356 65.4232 46.54C65.0952 46.716 64.8312 46.988 64.6312 47.356C64.4312 47.724 64.3312 48.172 64.3312 48.7C64.3312 49.236 64.4272 49.688 64.6192 50.056C64.8192 50.424 65.0832 50.7 65.4112 50.884C65.7392 51.06 66.0992 51.148 66.4912 51.148ZM74.503 45.304C75.303 45.304 75.951 45.548 76.447 46.036C76.943 46.516 77.191 47.212 77.191 48.124V52H76.111V48.28C76.111 47.624 75.947 47.124 75.619 46.78C75.291 46.428 74.843 46.252 74.275 46.252C73.699 46.252 73.239 46.432 72.895 46.792C72.559 47.152 72.391 47.676 72.391 48.364V52H71.299V45.424H72.391V46.36C72.607 46.024 72.899 45.764 73.267 45.58C73.643 45.396 74.055 45.304 74.503 45.304Z" fill="#BEB7FB"/>
<path d="M55.904 90.744H47.008L45.536 95H40.832L48.864 72.632H54.08L62.112 95H57.376L55.904 90.744ZM54.688 87.16L51.456 77.816L48.224 87.16H54.688ZM71.8663 90.872L76.3463 77.272H81.1143L74.5543 95H69.1143L62.5863 77.272H67.3863L71.8663 90.872ZM99.4705 85.752C99.4705 86.392 99.4278 86.968 99.3425 87.48H86.3825C86.4892 88.76 86.9372 89.7627 87.7265 90.488C88.5158 91.2133 89.4865 91.576 90.6385 91.576C92.3025 91.576 93.4865 90.8613 94.1905 89.432H99.0225C98.5105 91.1387 97.5292 92.5467 96.0785 93.656C94.6278 94.744 92.8465 95.288 90.7345 95.288C89.0278 95.288 87.4918 94.9147 86.1265 94.168C84.7825 93.4 83.7265 92.3227 82.9585 90.936C82.2118 89.5493 81.8385 87.9493 81.8385 86.136C81.8385 84.3013 82.2118 82.6907 82.9585 81.304C83.7052 79.9173 84.7505 78.8507 86.0945 78.104C87.4385 77.3573 88.9852 76.984 90.7345 76.984C92.4198 76.984 93.9238 77.3467 95.2465 78.072C96.5905 78.7973 97.6252 79.832 98.3505 81.176C99.0972 82.4987 99.4705 84.024 99.4705 85.752ZM94.8305 84.472C94.8092 83.32 94.3932 82.4027 93.5825 81.72C92.7718 81.016 91.7798 80.664 90.6065 80.664C89.4972 80.664 88.5585 81.0053 87.7905 81.688C87.0438 82.3493 86.5852 83.2773 86.4145 84.472H94.8305ZM111.925 77.016C114.037 77.016 115.743 77.688 117.045 79.032C118.346 80.3547 118.997 82.2107 118.997 84.6V95H114.517V85.208C114.517 83.8 114.165 82.7227 113.461 81.976C112.757 81.208 111.797 80.824 110.581 80.824C109.343 80.824 108.362 81.208 107.637 81.976C106.933 82.7227 106.581 83.8 106.581 85.208V95H102.101V77.272H106.581V79.48C107.178 78.712 107.935 78.1147 108.853 77.688C109.791 77.24 110.815 77.016 111.925 77.016ZM129.561 76.984C130.883 76.984 132.046 77.2507 133.049 77.784C134.051 78.296 134.841 78.968 135.417 79.8V77.272H139.929V95.128C139.929 96.7707 139.598 98.232 138.937 99.512C138.275 100.813 137.283 101.837 135.961 102.584C134.638 103.352 133.038 103.736 131.161 103.736C128.643 103.736 126.574 103.149 124.953 101.976C123.353 100.803 122.446 99.2027 122.233 97.176H126.681C126.915 97.9867 127.417 98.6267 128.185 99.096C128.974 99.5867 129.923 99.832 131.033 99.832C132.334 99.832 133.39 99.4373 134.201 98.648C135.011 97.88 135.417 96.7067 135.417 95.128V92.376C134.841 93.208 134.041 93.9013 133.017 94.456C132.014 95.0107 130.862 95.288 129.561 95.288C128.067 95.288 126.702 94.904 125.465 94.136C124.227 93.368 123.246 92.2907 122.521 90.904C121.817 89.496 121.465 87.8853 121.465 86.072C121.465 84.28 121.817 82.6907 122.521 81.304C123.246 79.9173 124.217 78.8507 125.433 78.104C126.67 77.3573 128.046 76.984 129.561 76.984ZM135.417 86.136C135.417 85.048 135.203 84.12 134.777 83.352C134.35 82.5627 133.774 81.9653 133.049 81.56C132.323 81.1333 131.545 80.92 130.713 80.92C129.881 80.92 129.113 81.1227 128.409 81.528C127.705 81.9333 127.129 82.5307 126.681 83.32C126.254 84.088 126.041 85.0053 126.041 86.072C126.041 87.1387 126.254 88.0773 126.681 88.888C127.129 89.6773 127.705 90.2853 128.409 90.712C129.134 91.1387 129.902 91.352 130.713 91.352C131.545 91.352 132.323 91.1493 133.049 90.744C133.774 90.3173 134.35 89.72 134.777 88.952C135.203 88.1627 135.417 87.224 135.417 86.136ZM160.144 85.752C160.144 86.392 160.102 86.968 160.016 87.48H147.056C147.163 88.76 147.611 89.7627 148.4 90.488C149.19 91.2133 150.16 91.576 151.312 91.576C152.976 91.576 154.16 90.8613 154.864 89.432H159.696C159.184 91.1387 158.203 92.5467 156.752 93.656C155.302 94.744 153.52 95.288 151.408 95.288C149.702 95.288 148.166 94.9147 146.8 94.168C145.456 93.4 144.4 92.3227 143.632 90.936C142.886 89.5493 142.512 87.9493 142.512 86.136C142.512 84.3013 142.886 82.6907 143.632 81.304C144.379 79.9173 145.424 78.8507 146.768 78.104C148.112 77.3573 149.659 76.984 151.408 76.984C153.094 76.984 154.598 77.3467 155.92 78.072C157.264 78.7973 158.299 79.832 159.024 81.176C159.771 82.4987 160.144 84.024 160.144 85.752ZM155.504 84.472C155.483 83.32 155.067 82.4027 154.256 81.72C153.446 81.016 152.454 80.664 151.28 80.664C150.171 80.664 149.232 81.0053 148.464 81.688C147.718 82.3493 147.259 83.2773 147.088 84.472H155.504ZM167.254 80.024C167.83 79.0853 168.577 78.3493 169.494 77.816C170.433 77.2827 171.5 77.016 172.694 77.016V81.72H171.51C170.102 81.72 169.036 82.0507 168.31 82.712C167.606 83.3733 167.254 84.5253 167.254 86.168V95H162.774V77.272H167.254V80.024ZM181.856 95.288C180.405 95.288 179.104 95.032 177.952 94.52C176.8 93.9867 175.882 93.272 175.2 92.376C174.538 91.48 174.176 90.488 174.112 89.4H178.624C178.709 90.0827 179.04 90.648 179.616 91.096C180.213 91.544 180.949 91.768 181.824 91.768C182.677 91.768 183.338 91.5973 183.808 91.256C184.298 90.9147 184.544 90.4773 184.544 89.944C184.544 89.368 184.245 88.9413 183.648 88.664C183.072 88.3653 182.144 88.0453 180.864 87.704C179.541 87.384 178.453 87.0533 177.6 86.712C176.768 86.3707 176.042 85.848 175.424 85.144C174.826 84.44 174.528 83.4907 174.528 82.296C174.528 81.3147 174.805 80.4187 175.36 79.608C175.936 78.7973 176.746 78.1573 177.792 77.688C178.858 77.2187 180.106 76.984 181.536 76.984C183.648 76.984 185.333 77.5173 186.592 78.584C187.85 79.6293 188.544 81.048 188.672 82.84H184.384C184.32 82.136 184.021 81.5813 183.488 81.176C182.976 80.7493 182.282 80.536 181.408 80.536C180.597 80.536 179.968 80.6853 179.52 80.984C179.093 81.2827 178.88 81.6987 178.88 82.232C178.88 82.8293 179.178 83.288 179.776 83.608C180.373 83.9067 181.301 84.216 182.56 84.536C183.84 84.856 184.896 85.1867 185.728 85.528C186.56 85.8693 187.274 86.4027 187.872 87.128C188.49 87.832 188.81 88.7707 188.832 89.944C188.832 90.968 188.544 91.8853 187.968 92.696C187.413 93.5067 186.602 94.1467 185.536 94.616C184.49 95.064 183.264 95.288 181.856 95.288ZM193.853 95.224C193.043 95.224 192.371 94.9787 191.837 94.488C191.325 93.976 191.069 93.3467 191.069 92.6C191.069 91.8533 191.325 91.2347 191.837 90.744C192.371 90.232 193.043 89.976 193.853 89.976C194.643 89.976 195.293 90.232 195.805 90.744C196.317 91.2347 196.573 91.8533 196.573 92.6C196.573 93.3467 196.317 93.976 195.805 94.488C195.293 94.9787 194.643 95.224 193.853 95.224ZM193.853 81.976C193.043 81.976 192.371 81.7307 191.837 81.24C191.325 80.728 191.069 80.0987 191.069 79.352C191.069 78.6053 191.325 77.9867 191.837 77.496C192.371 76.984 193.043 76.728 193.853 76.728C194.643 76.728 195.293 76.984 195.805 77.496C196.317 77.9867 196.573 78.6053 196.573 79.352C196.573 80.0987 196.317 80.728 195.805 81.24C195.293 81.7307 194.643 81.976 193.853 81.976ZM211.101 76.28V81.88H218.621V85.432H211.101V91.352H219.581V95H206.621V72.632H219.581V76.28H211.101ZM232.836 77.016C234.948 77.016 236.654 77.688 237.956 79.032C239.257 80.3547 239.908 82.2107 239.908 84.6V95H235.428V85.208C235.428 83.8 235.076 82.7227 234.372 81.976C233.668 81.208 232.708 80.824 231.492 80.824C230.254 80.824 229.273 81.208 228.548 81.976C227.844 82.7227 227.492 83.8 227.492 85.208V95H223.012V77.272H227.492V79.48C228.089 78.712 228.846 78.1147 229.764 77.688C230.702 77.24 231.726 77.016 232.836 77.016ZM242.376 86.072C242.376 84.28 242.728 82.6907 243.432 81.304C244.157 79.9173 245.139 78.8507 246.376 78.104C247.613 77.3573 248.989 76.984 250.504 76.984C251.656 76.984 252.755 77.24 253.8 77.752C254.845 78.2427 255.677 78.904 256.296 79.736V71.32H260.84V95H256.296V92.376C255.741 93.2507 254.963 93.9547 253.96 94.488C252.957 95.0213 251.795 95.288 250.472 95.288C248.979 95.288 247.613 94.904 246.376 94.136C245.139 93.368 244.157 92.2907 243.432 90.904C242.728 89.496 242.376 87.8853 242.376 86.072ZM256.328 86.136C256.328 85.048 256.115 84.12 255.688 83.352C255.261 82.5627 254.685 81.9653 253.96 81.56C253.235 81.1333 252.456 80.92 251.624 80.92C250.792 80.92 250.024 81.1227 249.32 81.528C248.616 81.9333 248.04 82.5307 247.592 83.32C247.165 84.088 246.952 85.0053 246.952 86.072C246.952 87.1387 247.165 88.0773 247.592 88.888C248.04 89.6773 248.616 90.2853 249.32 90.712C250.045 91.1387 250.813 91.352 251.624 91.352C252.456 91.352 253.235 91.1493 253.96 90.744C254.685 90.3173 255.261 89.72 255.688 88.952C256.115 88.1627 256.328 87.224 256.328 86.136ZM271.519 76.984C272.842 76.984 274.005 77.2507 275.007 77.784C276.01 78.296 276.799 78.968 277.375 79.8V77.272H281.887V95.128C281.887 96.7707 281.557 98.232 280.895 99.512C280.234 100.813 279.242 101.837 277.919 102.584C276.597 103.352 274.997 103.736 273.119 103.736C270.602 103.736 268.533 103.149 266.911 101.976C265.311 100.803 264.405 99.2027 264.191 97.176H268.639C268.874 97.9867 269.375 98.6267 270.143 99.096C270.933 99.5867 271.882 99.832 272.991 99.832C274.293 99.832 275.349 99.4373 276.159 98.648C276.97 97.88 277.375 96.7067 277.375 95.128V92.376C276.799 93.208 275.999 93.9013 274.975 94.456C273.973 95.0107 272.821 95.288 271.519 95.288C270.026 95.288 268.661 94.904 267.423 94.136C266.186 93.368 265.205 92.2907 264.479 90.904C263.775 89.496 263.423 87.8853 263.423 86.072C263.423 84.28 263.775 82.6907 264.479 81.304C265.205 79.9173 266.175 78.8507 267.391 78.104C268.629 77.3573 270.005 76.984 271.519 76.984ZM277.375 86.136C277.375 85.048 277.162 84.12 276.735 83.352C276.309 82.5627 275.733 81.9653 275.007 81.56C274.282 81.1333 273.503 80.92 272.671 80.92C271.839 80.92 271.071 81.1227 270.367 81.528C269.663 81.9333 269.087 82.5307 268.639 83.32C268.213 84.088 267.999 85.0053 267.999 86.072C267.999 87.1387 268.213 88.0773 268.639 88.888C269.087 89.6773 269.663 90.2853 270.367 90.712C271.093 91.1387 271.861 91.352 272.671 91.352C273.503 91.352 274.282 91.1493 275.007 90.744C275.733 90.3173 276.309 89.72 276.735 88.952C277.162 88.1627 277.375 87.224 277.375 86.136ZM284.471 86.072C284.471 84.28 284.823 82.6907 285.527 81.304C286.252 79.9173 287.223 78.8507 288.439 78.104C289.676 77.3573 291.052 76.984 292.567 76.984C293.89 76.984 295.042 77.2507 296.023 77.784C297.026 78.3173 297.826 78.9893 298.423 79.8V77.272H302.935V95H298.423V92.408C297.847 93.24 297.047 93.9333 296.023 94.488C295.02 95.0213 293.858 95.288 292.535 95.288C291.042 95.288 289.676 94.904 288.439 94.136C287.223 93.368 286.252 92.2907 285.527 90.904C284.823 89.496 284.471 87.8853 284.471 86.072ZM298.423 86.136C298.423 85.048 298.21 84.12 297.783 83.352C297.356 82.5627 296.78 81.9653 296.055 81.56C295.33 81.1333 294.551 80.92 293.719 80.92C292.887 80.92 292.119 81.1227 291.415 81.528C290.711 81.9333 290.135 82.5307 289.687 83.32C289.26 84.088 289.047 85.0053 289.047 86.072C289.047 87.1387 289.26 88.0773 289.687 88.888C290.135 89.6773 290.711 90.2853 291.415 90.712C292.14 91.1387 292.908 91.352 293.719 91.352C294.551 91.352 295.33 91.1493 296.055 90.744C296.78 90.3173 297.356 89.72 297.783 88.952C298.21 88.1627 298.423 87.224 298.423 86.136ZM328.686 77.016C330.862 77.016 332.612 77.688 333.934 79.032C335.278 80.3547 335.95 82.2107 335.95 84.6V95H331.47V85.208C331.47 83.8213 331.118 82.7653 330.414 82.04C329.71 81.2933 328.75 80.92 327.534 80.92C326.318 80.92 325.348 81.2933 324.622 82.04C323.918 82.7653 323.566 83.8213 323.566 85.208V95H319.086V85.208C319.086 83.8213 318.734 82.7653 318.03 82.04C317.326 81.2933 316.366 80.92 315.15 80.92C313.913 80.92 312.932 81.2933 312.206 82.04C311.502 82.7653 311.15 83.8213 311.15 85.208V95H306.67V77.272H311.15V79.416C311.726 78.6693 312.462 78.0827 313.358 77.656C314.276 77.2293 315.278 77.016 316.366 77.016C317.753 77.016 318.99 77.3147 320.078 77.912C321.166 78.488 322.009 79.32 322.606 80.408C323.182 79.384 324.014 78.5627 325.102 77.944C326.212 77.3253 327.406 77.016 328.686 77.016ZM356.042 85.752C356.042 86.392 355.999 86.968 355.914 87.48H342.954C343.06 88.76 343.508 89.7627 344.298 90.488C345.087 91.2133 346.058 91.576 347.21 91.576C348.874 91.576 350.058 90.8613 350.762 89.432H355.594C355.082 91.1387 354.1 92.5467 352.65 93.656C351.199 94.744 349.418 95.288 347.306 95.288C345.599 95.288 344.063 94.9147 342.698 94.168C341.354 93.4 340.298 92.3227 339.53 90.936C338.783 89.5493 338.41 87.9493 338.41 86.136C338.41 84.3013 338.783 82.6907 339.53 81.304C340.276 79.9173 341.322 78.8507 342.666 78.104C344.01 77.3573 345.556 76.984 347.306 76.984C348.991 76.984 350.495 77.3467 351.818 78.072C353.162 78.7973 354.196 79.832 354.922 81.176C355.668 82.4987 356.042 84.024 356.042 85.752ZM351.402 84.472C351.38 83.32 350.964 82.4027 350.154 81.72C349.343 81.016 348.351 80.664 347.178 80.664C346.068 80.664 345.13 81.0053 344.362 81.688C343.615 82.3493 343.156 83.2773 342.986 84.472H351.402Z" fill="#EBEEF5"/>
</g>
<defs>
<filter id="filter0_b_516_334" x="-24" y="-24" width="608" height="192" filterUnits="userSpaceOnUse" color-interpolation-filters="sRGB">
<feFlood flood-opacity="0" result="BackgroundImageFix"/>
<feGaussianBlur in="BackgroundImageFix" stdDeviation="12"/>
<feComposite in2="SourceAlpha" operator="in" result="effect1_backgroundBlur_516_334"/>
<feBlend mode="normal" in="SourceGraphic" in2="effect1_backgroundBlur_516_334" result="shape"/>
</filter>
</defs>
</svg>
