<svg width="24" height="24" viewBox="0 0 24 24" fill="none" xmlns="http://www.w3.org/2000/svg">
<path d="M9 22H15C20 22 22 20 22 15V9C22 4 20 2 15 2H9C4 2 2 4 2 9V15C2 20 4 22 9 22Z" stroke="#475069" stroke-width="1.5" stroke-linecap="round" stroke-linejoin="round"/>
<path d="M16.2802 13.6101C15.1502 14.7401 13.5302 15.0901 12.1002 14.6401L9.5102 17.2201C9.3302 17.4101 8.9602 17.5301 8.6902 17.4901L7.4902 17.3301C7.0902 17.2801 6.7302 16.9001 6.6702 16.5101L6.5102 15.3101C6.4702 15.0501 6.6002 14.6801 6.7802 14.4901L9.3602 11.9101C8.9202 10.4801 9.2602 8.86014 10.3902 7.73014C12.0102 6.11014 14.6502 6.11014 16.2802 7.73014C17.9002 9.34014 17.9002 11.9801 16.2802 13.6101Z" stroke="#475069" stroke-width="1.5" stroke-miterlimit="10" stroke-linecap="round" stroke-linejoin="round"/>
<path d="M10.4501 16.2799L9.6001 15.4199" stroke="#475069" stroke-width="1.5" stroke-miterlimit="10" stroke-linecap="round" stroke-linejoin="round"/>
<path d="M13.3944 10.7002H13.4034" stroke="#475069" stroke-width="2" stroke-linecap="round" stroke-linejoin="round"/>
</svg>
